<?xml version="1.0" encoding="UTF-8"?>
<svg version="1.1" xmlns="http://www.w3.org/2000/svg" width="605" height="214">
<path d="M0 0 C199.65 0 399.3 0 605 0 C605 70.62 605 141.24 605 214 C405.35 214 205.7 214 0 214 C0 143.38 0 72.76 0 0 Z " fill="#060202" transform="translate(0,0)"/>
<path d="M0 0 C0.71353638 0.00202423 1.42707275 0.00404846 2.16223145 0.00613403 C2.89091431 0.00517731 3.61959717 0.00422058 4.37036133 0.00323486 C5.91377855 0.00255318 7.45719861 0.00440666 9.00061035 0.00857544 C11.37095544 0.01392391 13.74111104 0.00863011 16.1114502 0.00222778 C17.60754437 0.00288857 19.10363842 0.00416973 20.59973145 0.00613403 C21.31326782 0.0041098 22.0268042 0.00208557 22.76196289 0 C27.76602953 0.02399462 27.76602953 0.02399462 28.88098145 1.13894653 C28.88098145 5.09894653 28.88098145 9.05894653 28.88098145 13.13894653 C51.98098145 13.13894653 75.08098145 13.13894653 98.88098145 13.13894653 C98.88098145 17.09894653 98.88098145 21.05894653 98.88098145 25.13894653 C100.20098145 25.13894653 101.52098145 25.13894653 102.88098145 25.13894653 C102.88098145 21.17894653 102.88098145 17.21894653 102.88098145 13.13894653 C141.49098145 13.13894653 180.10098145 13.13894653 219.88098145 13.13894653 C219.88098145 15.44894653 219.88098145 17.75894653 219.88098145 20.13894653 C220.87098145 20.13894653 221.86098145 20.13894653 222.88098145 20.13894653 C222.88098145 17.82894653 222.88098145 15.51894653 222.88098145 13.13894653 C229.84101591 13.11367815 236.80103864 13.09611431 243.7611084 13.08401489 C246.13090456 13.07897312 248.5006976 13.07213988 250.8704834 13.06350708 C254.26852183 13.05143463 257.6665193 13.04571682 261.0645752 13.04129028 C262.1312291 13.036129 263.197883 13.03096771 264.29685974 13.02565002 C265.76827171 13.02553673 265.76827171 13.02553673 267.26940918 13.02542114 C268.1376683 13.02320053 269.00592743 13.02097992 269.90049744 13.01869202 C271.88098145 13.13894653 271.88098145 13.13894653 272.88098145 14.13894653 C272.98176265 16.50293122 273.0207136 18.83705964 273.01379395 21.20144653 C273.01522903 22.26117676 273.01522903 22.26117676 273.01669312 23.34231567 C273.01737477 24.83865447 273.01552149 26.3349962 273.01135254 27.83132935 C273.00600402 30.1292481 273.01129795 32.42697139 273.0177002 34.72488403 C273.01703941 36.1754053 273.01575824 37.62592645 273.01379395 39.07644653 C273.01581818 39.76810913 273.01784241 40.45977173 273.01992798 41.1723938 C272.99593368 46.0239943 272.99593368 46.0239943 271.88098145 47.13894653 C270.34615175 47.23214103 268.80706062 47.25640454 267.26940918 47.25247192 C266.28846786 47.25239639 265.30752655 47.25232086 264.29685974 47.25224304 C263.23020584 47.24708176 262.16355194 47.24192047 261.0645752 47.23660278 C259.43528831 47.23448036 259.43528831 47.23448036 257.77308655 47.23231506 C254.2881907 47.22669701 250.80335803 47.21414146 247.31848145 47.20144653 C244.96236258 47.19643386 242.60624271 47.19187055 240.25012207 47.18777466 C234.4603868 47.17672172 228.67068864 47.15996604 222.88098145 47.13894653 C222.88098145 45.15894653 222.88098145 43.17894653 222.88098145 41.13894653 C221.89098145 41.13894653 220.90098145 41.13894653 219.88098145 41.13894653 C219.88098145 57.30894653 219.88098145 73.47894653 219.88098145 90.13894653 C221.20098145 90.13894653 222.52098145 90.13894653 223.88098145 90.13894653 C223.88098145 88.15894653 223.88098145 86.17894653 223.88098145 84.13894653 C250.61098145 84.13894653 277.34098145 84.13894653 304.88098145 84.13894653 C304.88098145 82.81894653 304.88098145 81.49894653 304.88098145 80.13894653 C300.26098145 80.13894653 295.64098145 80.13894653 290.88098145 80.13894653 C290.85842785 71.55088542 290.84006487 62.96284717 290.82916927 54.37476444 C290.82394108 50.38737453 290.8168446 46.40000586 290.80554199 42.41262817 C290.79471083 38.56769539 290.78870413 34.72278309 290.7861042 30.87783623 C290.78425037 29.4077567 290.78063054 27.93767835 290.77525139 26.4676075 C290.76803789 24.41540186 290.76699063 22.36328186 290.76745605 20.31106567 C290.76523544 19.14080338 290.76301483 17.97054108 290.76072693 16.76481628 C290.88098145 14.13894653 290.88098145 14.13894653 291.88098145 13.13894653 C294.24496613 13.03816533 296.57909456 12.99921438 298.94348145 13.00613403 C300.00321167 13.00469894 300.00321167 13.00469894 301.08435059 13.00323486 C302.58068938 13.00255321 304.07703112 13.00440649 305.57336426 13.00857544 C307.87128302 13.01392396 310.16900631 13.00863003 312.46691895 13.00222778 C313.91744021 13.00288857 315.36796136 13.00416974 316.81848145 13.00613403 C317.51014404 13.0041098 318.20180664 13.00208557 318.91442871 13 C323.76602921 13.0239943 323.76602921 13.0239943 324.88098145 14.13894653 C324.97840212 15.47734126 325.00729703 16.82081478 325.00796509 18.16275024 C325.01078491 19.02933762 325.01360474 19.89592499 325.01651001 20.78877258 C325.01347366 22.2257122 325.01347366 22.2257122 325.01037598 23.69168091 C325.01300446 25.19641716 325.01300446 25.19641716 325.01568604 26.73155212 C325.02010661 30.06528425 325.01716584 33.39896382 325.01379395 36.73269653 C325.01446693 39.03815725 325.0154369 41.3436179 325.01669312 43.64907837 C325.01817037 48.4879931 325.01601465 53.32688941 325.01135254 58.165802 C325.00565524 64.38389299 325.0089341 70.60194081 325.014925 76.82003021 C325.01852988 81.58277718 325.01739237 86.34551384 325.01479721 91.10826111 C325.01412774 93.40170802 325.01495707 95.69515585 325.01727676 97.98860168 C325.01980208 101.1878306 325.01596439 104.38698856 325.01037598 107.58621216 C325.01240021 108.54417191 325.01442444 109.50213165 325.01651001 110.48912048 C325.01228027 111.78900154 325.01228027 111.78900154 325.00796509 113.11514282 C325.00758806 113.87247963 325.00721104 114.62981644 325.00682259 115.41010284 C324.88098145 117.13894653 324.88098145 117.13894653 323.88098145 118.13894653 C322.52757554 118.23425816 321.1692416 118.26083373 319.81248474 118.25920105 C318.49781471 118.26126305 318.49781471 118.26126305 317.15658569 118.2633667 C315.7032634 118.25797379 315.7032634 118.25797379 314.22058105 118.25247192 C313.20606369 118.25261795 312.19154633 118.25276398 311.14628601 118.25291443 C307.77527771 118.25221483 304.4043239 118.24442022 301.0333252 118.23660278 C298.70304901 118.23473877 296.37277244 118.23331479 294.04249573 118.23231506 C287.89560879 118.22848855 281.74874531 118.21865713 275.60186768 118.20761108 C269.33488279 118.19739982 263.06789412 118.19281806 256.80090332 118.18777466 C244.49425236 118.17703498 232.18761885 118.15995697 219.88098145 118.13894653 C219.7999474 115.22172105 219.74047063 112.30675138 219.69348145 109.38894653 C219.66834473 108.56394653 219.64320801 107.73894653 219.61730957 106.88894653 C219.54263645 100.715969 219.54263645 100.715969 221.3927002 97.56082153 C221.88383301 97.09160278 222.37496582 96.62238403 222.88098145 96.13894653 C219.19268539 97.60186564 217.81398211 99.40820745 215.6973877 102.70925903 C208.94967421 111.93970765 202.54850108 118.00938952 191.13241577 119.86012268 C175.60325499 121.70176512 156.72243008 122.08321225 143.24475098 113.06716919 C135.13971289 105.90261719 132.65592856 98.61870539 131.83329773 88.14060974 C131.14231521 74.78537397 131.78625094 61.45527156 132.88098145 48.13894653 C134.86098145 48.13894653 136.84098145 48.13894653 138.88098145 48.13894653 C138.88098145 47.14894653 138.88098145 46.15894653 138.88098145 45.13894653 C127.00098145 45.13894653 115.12098145 45.13894653 102.88098145 45.13894653 C102.88098145 41.83894653 102.88098145 38.53894653 102.88098145 35.13894653 C101.56098145 35.13894653 100.24098145 35.13894653 98.88098145 35.13894653 C98.88320206 36.16402817 98.88542267 37.1891098 98.88771057 38.24525452 C98.90794186 47.88401614 98.92295352 57.52277348 98.93279362 67.16155148 C98.93802248 72.11748575 98.94512018 77.07340295 98.9564209 82.02932739 C98.96724967 86.80793489 98.97325826 91.58652591 98.97585869 96.36514473 C98.97771296 98.19248273 98.9813336 100.01981978 98.9867115 101.8471508 C98.9939218 104.39747982 98.99497239 106.9477399 98.99450684 109.49807739 C98.99810211 110.26124268 99.00169739 111.02440796 99.00540161 111.81069946 C98.99503361 117.02489437 98.99503361 117.02489437 97.88098145 118.13894653 C96.32099096 118.2374162 94.756576 118.26693271 93.19348145 118.26834106 C92.19574707 118.27149323 91.1980127 118.27464539 90.17004395 118.27789307 C89.08465332 118.27586884 87.9992627 118.2738446 86.88098145 118.27175903 C85.22195801 118.27319412 85.22195801 118.27319412 83.52941895 118.2746582 C81.18566837 118.2753402 78.84191592 118.27348457 76.49816895 118.26931763 C72.89656357 118.26396967 69.29508291 118.269262 65.69348145 118.27566528 C63.42264783 118.27500451 61.1518143 118.27372335 58.88098145 118.27175903 C57.79559082 118.27378326 56.7102002 118.2758075 55.59191895 118.27789307 C54.59418457 118.27474091 53.5964502 118.27158875 52.56848145 118.26834106 C51.68547363 118.26754547 50.80246582 118.26674988 49.8927002 118.26593018 C47.88098145 118.13894653 47.88098145 118.13894653 46.88098145 117.13894653 C46.79254351 114.69064227 46.76569393 112.27074054 46.7833252 109.82254028 C46.78474014 109.09148575 46.78615509 108.36043121 46.78761292 107.60722351 C46.79322736 105.26359021 46.80578223 102.92005114 46.81848145 100.57644653 C46.82349459 98.99116145 46.82805782 97.40587488 46.83215332 95.82058716 C46.84235224 91.92664111 46.86192458 88.03289976 46.88098145 84.13894653 C52.16098145 84.13894653 57.44098145 84.13894653 62.88098145 84.13894653 C62.88098145 91.39894653 62.88098145 98.65894653 62.88098145 106.13894653 C64.20098145 106.13894653 65.52098145 106.13894653 66.88098145 106.13894653 C66.88098145 86.66894653 66.88098145 67.19894653 66.88098145 47.13894653 C67.87098145 47.13894653 68.86098145 47.13894653 69.88098145 47.13894653 C69.88098145 46.47894653 69.88098145 45.81894653 69.88098145 45.13894653 C55.03098145 45.13894653 40.18098145 45.13894653 24.88098145 45.13894653 C24.88098145 45.79894653 24.88098145 46.45894653 24.88098145 47.13894653 C26.20098145 47.13894653 27.52098145 47.13894653 28.88098145 47.13894653 C28.92726294 56.10087048 28.96282925 65.06275348 28.98460579 74.02477074 C28.9950559 78.18591906 29.00923736 82.3469858 29.03186035 86.50808716 C29.05354515 90.52161082 29.06554082 94.53505587 29.07073593 98.54863358 C29.07443956 100.08209089 29.08167156 101.61554377 29.09244156 103.14896774 C29.10689873 105.29204454 29.10896185 107.43479389 29.10803223 109.57791138 C29.11247345 110.79924774 29.11691467 112.02058411 29.12149048 113.27893066 C28.88098145 116.13894653 28.88098145 116.13894653 26.88098145 118.13894653 C16.65098145 118.13894653 6.42098145 118.13894653 -4.11901855 118.13894653 C-4.11901855 95.03894653 -4.11901855 71.93894653 -4.11901855 48.13894653 C0.17098145 48.13894653 4.46098145 48.13894653 8.88098145 48.13894653 C8.88098145 46.81894653 8.88098145 45.49894653 8.88098145 44.13894653 C-1.01901855 44.13894653 -10.91901855 44.13894653 -21.11901855 44.13894653 C-21.13964355 39.20957153 -21.16026855 34.28019653 -21.18151855 29.20144653 C-21.19062256 27.6443396 -21.19972656 26.08723267 -21.20910645 24.48294067 C-21.211604 23.26727417 -21.21410156 22.05160767 -21.2166748 20.79910278 C-21.22191162 19.54750366 -21.22714844 18.29590454 -21.23254395 17.00637817 C-21.11901855 14.13894653 -21.11901855 14.13894653 -20.11901855 13.13894653 C-17.82750438 13.05103678 -15.53329331 13.03200615 -13.2401123 13.04129028 C-12.21011864 13.0434127 -12.21011864 13.0434127 -11.15931702 13.045578 C-8.95834054 13.05119174 -6.75746447 13.06374646 -4.55651855 13.07644653 C-3.06758773 13.08145977 -1.57865531 13.08602298 -0.08972168 13.09011841 C3.56721219 13.1011656 7.22408703 13.1184394 10.88098145 13.13894653 C10.88098145 12.14894653 10.88098145 11.15894653 10.88098145 10.13894653 C5.27098145 10.13894653 -0.33901855 10.13894653 -6.11901855 10.13894653 C-6.2166748 3.20535278 -6.2166748 3.20535278 -6.11901855 1.13894653 C-4.41408974 -0.56598228 -2.27367595 0.01090233 0 0 Z " fill="#FDFDFD" transform="translate(235.1190185546875,28.861053466796875)"/>
<path d="M0 0 C3.38425055 2.23052877 5.73042498 4.65536313 8 8 C7.896875 7.2575 7.79375 6.515 7.6875 5.75 C8 3 8 3 9.9375 0.625 C13.64831982 -1.34400644 15.77618891 -1.34598388 19.8515625 -0.67578125 C24.1046826 0.66201835 26.09334335 3.7492109 28.60546875 7.21484375 C31.53672548 13.06914641 30.96403154 21.35084107 29.30859375 27.6171875 C27.25525497 32.17061659 24.58496271 34.84237049 20 37 C14.95812953 37.61917707 12.10311557 36.98408405 8 34 C8.33 32.02 8.66 30.04 9 28 C8.01 28 7.02 28 6 28 C5.773125 28.7425 5.54625 29.485 5.3125 30.25 C3.66754416 33.69657413 2.29836383 35.06400384 -1 37 C-4.8626817 37.54318961 -8.28248383 37.23917206 -12 36 C-11.009245 37.66641006 -11.009245 37.66641006 -9 39 C-4.35776099 39.53271595 -1.42748674 39.62143414 2.5 37 C3.325 36.34 4.15 35.68 5 35 C9 37 9 37 10.8125 38.125 C15.05908644 39.82363457 19.69569914 39.37737627 24 38 C24 40.64 24 43.28 24 46 C8.16 46 -7.68 46 -24 46 C-24 47.32 -24 48.64 -24 50 C-8.16 50 7.68 50 24 50 C24 60.89 24 71.78 24 83 C12.45 83 0.9 83 -11 83 C-10.92084741 94.42856116 -10.92084741 94.42856116 -10.81982422 105.85693359 C-10.81398416 107.28743187 -10.80888745 108.71793347 -10.8046875 110.1484375 C-10.79445557 110.89391846 -10.78422363 111.63939941 -10.77368164 112.4074707 C-10.77304683 114.27317284 -10.87712308 116.13834854 -11 118 C-13 120 -13 120 -16.05688477 120.24291992 C-17.9797229 120.23675659 -17.9797229 120.23675659 -19.94140625 120.23046875 C-20.62428207 120.23001053 -21.3071579 120.22955231 -22.01072693 120.2290802 C-23.45402769 120.22605891 -24.89732522 120.21817622 -26.34057617 120.20581055 C-28.55724553 120.1875433 -30.77349758 120.18530093 -32.99023438 120.18554688 C-43.85257532 120.14742468 -43.85257532 120.14742468 -45 119 C-45.0883967 116.6243148 -45.11530305 114.27791326 -45.09765625 111.90234375 C-45.0962413 111.19348526 -45.09482635 110.48462677 -45.09336853 109.75428772 C-45.08775443 107.48198288 -45.07519963 105.20977525 -45.0625 102.9375 C-45.05748681 101.40039204 -45.05292359 99.86328255 -45.04882812 98.32617188 C-45.0386297 94.55071333 -45.01905732 90.77546596 -45 87 C-40.05 87 -35.1 87 -30 87 C-30.33 86.01 -30.66 85.02 -31 84 C-55.75 83.505 -55.75 83.505 -81 83 C-81 72.11 -81 61.22 -81 50 C-70.11 50 -59.22 50 -48 50 C-48 48.68 -48 47.36 -48 46 C-58.89 46 -69.78 46 -81 46 C-81.020625 41.070625 -81.04125 36.14125 -81.0625 31.0625 C-81.071604 29.50539307 -81.08070801 27.94828613 -81.09008789 26.34399414 C-81.09258545 25.12832764 -81.09508301 23.91266113 -81.09765625 22.66015625 C-81.10289307 21.40855713 -81.10812988 20.15695801 -81.11352539 18.86743164 C-81 16 -81 16 -80 15 C-78.18944975 14.90623947 -76.37522799 14.8825589 -74.56225586 14.88647461 C-72.82056374 14.88658791 -72.82056374 14.88658791 -71.04368591 14.88670349 C-69.14840904 14.89444542 -69.14840904 14.89444542 -67.21484375 14.90234375 C-65.28591026 14.90446617 -65.28591026 14.90446617 -63.31800842 14.90663147 C-59.89356557 14.91045582 -56.46916491 14.92028538 -53.04473877 14.93133545 C-49.55261811 14.94155136 -46.06049066 14.94612947 -42.56835938 14.95117188 C-35.71222222 14.96190773 -28.85611313 14.97898316 -22 15 C-22 15.99 -22 16.98 -22 18 C-21.01 18 -20.02 18 -19 18 C-19.0825 17.175 -19.165 16.35 -19.25 15.5 C-18.8384776 9.73868636 -16.60700663 5.52861606 -12.4375 1.5625 C-7.97624043 -1.29728178 -5.09429535 -1.14182482 0 0 Z " fill="#FDFDFD" transform="translate(126,27)"/>
<path d="M0 0 C6.93 0 13.86 0 21 0 C21 6.6 21 13.2 21 20 C22.32 20 23.64 20 25 20 C25 13.4 25 6.8 25 0 C32.26 0 39.52 0 47 0 C47 2.97 47 5.94 47 9 C47.99 9 48.98 9 50 9 C50 6.03 50 3.06 50 0 C57.92 0 65.84 0 74 0 C74 15.84 74 31.68 74 48 C71.69 48 69.38 48 67 48 C67 49.32 67 50.64 67 52 C69.31 52 71.62 52 74 52 C74 57.94 74 63.88 74 70 C64.238486 70.02255193 54.47698917 70.04091561 44.71545506 70.05181217 C40.18325906 70.05704078 35.65108173 70.06413801 31.11889648 70.07543945 C26.7487717 70.08626914 22.37866492 70.09227701 18.00852776 70.09487724 C16.33749037 70.09673135 14.66645403 70.10035168 12.99542427 70.10573006 C10.66302449 70.11294159 8.33070007 70.1139909 5.99829102 70.11352539 C5.3005809 70.11712067 4.60287079 70.12071594 3.88401794 70.12442017 C-0.88594784 70.11405216 -0.88594784 70.11405216 -2 69 C-2.09981214 66.3226862 -2.13879875 63.67695825 -2.125 61 C-2.12886719 60.24976563 -2.13273438 59.49953125 -2.13671875 58.7265625 C-2.12661053 53.12661053 -2.12661053 53.12661053 -1 52 C0.7492872 51.90634994 2.50236254 51.88255562 4.25415039 51.88647461 C5.37523697 51.88655014 6.49632355 51.88662567 7.65138245 51.88670349 C9.48103798 51.89444542 9.48103798 51.89444542 11.34765625 51.90234375 C13.2100016 51.90446617 13.2100016 51.90446617 15.10997009 51.90663147 C18.41605491 51.91129409 21.72207146 51.92028503 25.02813721 51.93133545 C28.3996115 51.94155173 31.77109283 51.94612955 35.14257812 51.95117188 C41.76173775 51.96222605 48.38086493 51.97898264 55 52 C55 50.68 55 49.36 55 48 C53.35 48 51.7 48 50 48 C50 38.1 50 28.2 50 18 C49.01 18 48.02 18 47 18 C47 22.95 47 27.9 47 33 C39.74 33 32.48 33 25 33 C25 31.68 25 30.36 25 29 C23.68 29 22.36 29 21 29 C21 30.32 21 31.64 21 33 C14.07 33 7.14 33 0 33 C0 22.11 0 11.22 0 0 Z " fill="#FEFEFE" transform="translate(153,77)"/>
<path d="M0 0 C13.2 0 26.4 0 40 0 C40 0.99 40 1.98 40 3 C38.02 3 36.04 3 34 3 C33.48158645 14.53477912 33.48158645 14.53477912 38.0625 24.5625 C39.5165625 25.7690625 39.5165625 25.7690625 41 27 C37 27 37 27 34.65673828 24.90454102 C33.80321777 23.94733154 32.94969727 22.99012207 32.0703125 22.00390625 C31.10039775 20.95894856 30.12899197 19.91537324 29.15625 18.87304688 C27.64187716 17.22963035 26.13988332 15.57940405 24.66308594 13.90209961 C19.16421168 7.69783849 14.99901038 3.40251607 6.2421875 2.77734375 C4.16023265 2.79750079 2.0767925 2.85209729 0 3 C0 2.01 0 1.02 0 0 Z " fill="#080404" transform="translate(387,74)"/>
<path d="M0 0 C0.33 0 0.66 0 1 0 C1 9.24 1 18.48 1 28 C-8.24 28 -17.48 28 -27 28 C-24.82287773 26.91143886 -22.64287861 25.82827547 -20.44921875 24.7734375 C-11.02429748 20.00098797 -4.8762569 13.91988325 -1 4 C-0.64270064 2.67288808 -0.30253754 1.34065653 0 0 Z " fill="#FFFFFF" transform="translate(604,186)"/>
<path d="M0 0 C1.08856114 2.17712227 2.17172453 4.35712139 3.2265625 6.55078125 C8.15016509 16.27420871 14.12105235 21.62088665 24 26 C25.32 26.66 26.64 27.32 28 28 C18.76 28 9.52 28 0 28 C0 18.76 0 9.52 0 0 Z " fill="#FFFFFF" transform="translate(0,186)"/>
<path d="M0 0 C9.24 0 18.48 0 28 0 C28 9.24 28 18.48 28 28 C26.91143886 25.82287773 25.82827547 23.64287861 24.7734375 21.44921875 C19.84983491 11.72579129 13.87894765 6.37911335 4 2 C2.68 1.34 1.36 0.68 0 0 Z " fill="#FFFFFF" transform="translate(577,0)"/>
<path d="M0 0 C9.24 0 18.48 0 28 0 C25.82287773 1.08856114 23.64287861 2.17172453 21.44921875 3.2265625 C11.72579129 8.15016509 6.37911335 14.12105235 2 24 C1.34 25.32 0.68 26.64 0 28 C0 18.76 0 9.52 0 0 Z " fill="#FFFFFF" transform="translate(0,0)"/>
<path d="M0 0 C9 0 9 0 13 2 C14.29004296 4.58008592 14.20410224 6.55741574 14.25 9.4375 C14.28867188 10.88962891 14.28867188 10.88962891 14.328125 12.37109375 C14 15 14 15 12.609375 16.78515625 C8.10646195 20.18419984 7.22667553 19 0 19 C0 12.73 0 6.46 0 0 Z " fill="#CAC7C4" transform="translate(155,168)"/>
<path d="M0 0 C9 0 9 0 13 2 C14.98178331 5.96356663 14.5412771 10.68888714 14 15 C12.0625 17.6875 12.0625 17.6875 9 19 C6.03 19 3.06 19 0 19 C0 12.73 0 6.46 0 0 Z " fill="#D7D4D2" transform="translate(349,168)"/>
<path d="M0 0 C2.22965157 1.66059897 2.91011117 2.55804657 3.46875 5.3046875 C3.52450341 9.89040569 3.50905948 12.27277217 0.8125 16.125 C-2 18 -2 18 -4.5625 18.5625 C-8.06459879 17.75432336 -9.06180764 17.0867508 -11 14 C-11.7417378 9.06257362 -11.93991467 4.65424982 -9.4375 0.25 C-5.91905291 -1.55433184 -3.75426361 -1.02389008 0 0 Z " fill="#E7E6E4" transform="translate(377,169)"/>
<path d="M0 0 C2.5 0.625 2.5 0.625 4.8125 2.625 C6.96871221 6.45826616 7.35900011 9.32132267 6.5 13.625 C4.8125 16.625 4.8125 16.625 2.5 18.625 C-0.0625 19.125 -0.0625 19.125 -2.5 18.625 C-5.0048111 16.74639167 -5.48700625 15.66398126 -6.5 12.625 C-6.87987757 8.52232223 -6.88500873 6.29520037 -4.8125 2.6875 C-2.5 0.625 -2.5 0.625 0 0 Z " fill="#0F0A09" transform="translate(145.5,29.375)"/>
<path d="M0 0 C2.9375 1 2.9375 1 4.8125 2.625 C6.389515 5.95425389 6.32121319 8.35472471 5.9375 12 C4.8125 14.875 4.8125 14.875 2.9375 17 C-0.25 17.8125 -0.25 17.8125 -3.0625 18 C-6.19425692 14.96611049 -7.39263899 12.72649054 -7.5625 8.4375 C-7.40580374 5.30879804 -7.12760669 4.10517234 -5.4375 1.375 C-3.0625 0 -3.0625 0 0 0 Z " fill="#0E0909" transform="translate(124.0625,30)"/>
<path d="M0 0 C0.99 0 1.98 0 3 0 C4.82421875 2.1875 4.82421875 2.1875 6.6875 5 C7.31011719 5.928125 7.93273437 6.85625 8.57421875 7.8125 C9.04472656 8.534375 9.51523437 9.25625 10 10 C10.33 6.7 10.66 3.4 11 0 C12.32 0 13.64 0 15 0 C15 6.27 15 12.54 15 19 C10.26248525 17.81562131 9.84258011 16.87622747 7.25 12.9375 C6.32960938 11.55884766 6.32960938 11.55884766 5.390625 10.15234375 C4.93171875 9.44207031 4.4728125 8.73179687 4 8 C3.67 11.63 3.34 15.26 3 19 C2.01 19 1.02 19 0 19 C0 12.73 0 6.46 0 0 Z " fill="#D9D6D5" transform="translate(435,168)"/>
<path d="M0 0 C0.99 0 1.98 0 3 0 C3 6.27 3 12.54 3 19 C2.01 19 1.02 19 0 19 C-0.33 15.7 -0.66 12.4 -1 9 C-1.99 10.98 -2.98 12.96 -4 15 C-5.8125 14.875 -5.8125 14.875 -8 14 C-9.75 10.9375 -9.75 10.9375 -11 8 C-11.33 11.3 -11.66 14.6 -12 18 C-12.66 18 -13.32 18 -14 18 C-14 12.39 -14 6.78 -14 1 C-13.01 1 -12.02 1 -11 1 C-7 7.625 -7 7.625 -7 11 C-6.34 11 -5.68 11 -5 11 C-4.731875 10.113125 -4.46375 9.22625 -4.1875 8.3125 C-3.06886949 5.19210962 -1.96196863 2.66827733 0 0 Z " fill="#F5F4F3" transform="translate(261,168)"/>
<path d="M0 0 C4.73751475 1.18437869 5.15741989 2.12377253 7.75 6.0625 C8.36359375 6.98160156 8.9771875 7.90070313 9.609375 8.84765625 C10.06828125 9.55792969 10.5271875 10.26820313 11 11 C11.33 7.37 11.66 3.74 12 0 C12.99 0 13.98 0 15 0 C15 5.94 15 11.88 15 18 C8.83279604 16.45819901 7.43384377 12.21680111 4 7 C3.67 10.96 3.34 14.92 3 19 C2.01 19 1.02 19 0 19 C0 12.73 0 6.46 0 0 Z " fill="#EEEDEC" transform="translate(286,168)"/>
<path d="M0 0 C0.99 0.33 1.98 0.66 3 1 C4.20718817 3.4613715 5.22605697 5.82064765 6.1875 8.375 C6.46013672 9.06078125 6.73277344 9.7465625 7.01367188 10.453125 C8.17139955 13.43594216 9 15.77442504 9 19 C8.01 19 7.02 19 6 19 C5.67 18.01 5.34 17.02 5 16 C2.36 16 -0.28 16 -3 16 C-3.33 16.99 -3.66 17.98 -4 19 C-4.99 19 -5.98 19 -7 19 C-6.31471486 14.85713983 -5.02109557 11.15886187 -3.5 7.25 C-3.0565625 6.10015625 -2.613125 4.9503125 -2.15625 3.765625 C-1 1 -1 1 0 0 Z " fill="#E7E5E4" transform="translate(274,168)"/>
<path d="M0 0 C0.99 0 1.98 0 3 0 C4.0063655 2.43504509 5.00526413 4.87270864 6 7.3125 C6.28617187 8.00279297 6.57234375 8.69308594 6.8671875 9.40429688 C8.08910744 12.41545674 9 14.71886984 9 18 C8.01 17.67 7.02 17.34 6 17 C6 16.34 6 15.68 6 15 C3.03 15 0.06 15 -3 15 C-3 15.99 -3 16.98 -3 18 C-3.99 18 -4.98 18 -6 18 C-5.31583566 13.82423832 -3.98634991 10.11919593 -2.4375 6.1875 C-1.75494141 4.44533203 -1.75494141 4.44533203 -1.05859375 2.66796875 C-0.70925781 1.78753906 -0.35992187 0.90710938 0 0 Z " fill="#EFEEED" transform="translate(422,168)"/>
<path d="M0 0 C0.99 0 1.98 0 3 0 C4.0063655 2.43504509 5.00526413 4.87270864 6 7.3125 C6.28617188 8.00279297 6.57234375 8.69308594 6.8671875 9.40429688 C8.08910744 12.41545674 9 14.71886984 9 18 C8.01 18 7.02 18 6 18 C6 17.01 6 16.02 6 15 C3.03 15 0.06 15 -3 15 C-3.33 15.99 -3.66 16.98 -4 18 C-4.66 18 -5.32 18 -6 18 C-5.41347648 13.51006131 -4.2356462 9.77456816 -2.4375 5.625 C-1.98246094 4.56539062 -1.52742187 3.50578125 -1.05859375 2.4140625 C-0.70925781 1.61742187 -0.35992187 0.82078125 0 0 Z " fill="#E9E7E6" transform="translate(232,168)"/>
<path d="M0 0 C0.99 0 1.98 0 3 0 C3.33 2.64 3.66 5.28 4 8 C4.47050781 7.4225 4.94101563 6.845 5.42578125 6.25 C6.04839844 5.5075 6.67101562 4.765 7.3125 4 C8.23482422 2.88625 8.23482422 2.88625 9.17578125 1.75 C11 0 11 0 14 0 C12.62594577 2.95950142 10.98223068 5.41495396 9 8 C9.433125 8.62648437 9.86625 9.25296875 10.3125 9.8984375 C10.869375 10.71570313 11.42625 11.53296875 12 12.375 C12.8353125 13.59316406 12.8353125 13.59316406 13.6875 14.8359375 C15 17 15 17 15 19 C13.25 18.9375 13.25 18.9375 11 18 C9.40498463 15.75835678 8.25456982 13.46433357 7 11 C6.01 11.33 5.02 11.66 4 12 C3.67 14.31 3.34 16.62 3 19 C2.01 19 1.02 19 0 19 C0 12.73 0 6.46 0 0 Z " fill="#EFEDED" transform="translate(207,168)"/>
<path d="M0 0 C0.99 0 1.98 0 3 0 C3.33 2.64 3.66 5.28 4 8 C6.31 5.36 8.62 2.72 11 0 C11.99 0.33 12.98 0.66 14 1 C11.525 4.465 11.525 4.465 9 8 C9.3609375 8.55429688 9.721875 9.10859375 10.09375 9.6796875 C10.5578125 10.40414062 11.021875 11.12859375 11.5 11.875 C11.9640625 12.59429687 12.428125 13.31359375 12.90625 14.0546875 C14 16 14 16 14 18 C12.1875 17.8125 12.1875 17.8125 10 17 C7 12.82142857 7 12.82142857 7 10 C6.01 10.66 5.02 11.32 4 12 C3.26393501 15.56769552 3.26393501 15.56769552 3 19 C2.01 19 1.02 19 0 19 C0 12.73 0 6.46 0 0 Z " fill="#E6E4E3" transform="translate(189,168)"/>
<path d="M0 0 C0.99 0 1.98 0 3 0 C2.67 1.98 2.34 3.96 2 6 C7.23634898 8.53883587 12.44869995 8.77641602 18 7 C17.6875 8.9375 17.6875 8.9375 17 11 C13.42365687 12.19211438 10.75935317 12.25926574 7 12 C5.30280873 11.05273046 3.63064764 10.05771739 2 9 C-1.89599371 8.63019987 -1.89599371 8.63019987 -4.25 10.5 C-8.12574567 12.61404309 -10.6076375 12.35422278 -15 12 C-15.99 11.34 -16.98 10.68 -18 10 C-18 9.34 -18 8.68 -18 8 C-16.89591797 8.06960937 -16.89591797 8.06960937 -15.76953125 8.140625 C-9.58619414 8.43951243 -9.58619414 8.43951243 -3.9375 6.25 C-2.18184888 4.21117935 -0.98043983 2.49566503 0 0 Z " fill="#1B1615" transform="translate(132,55)"/>
<path d="M0 0 C3.96 0 7.92 0 12 0 C12 0.99 12 1.98 12 3 C9.03 3 6.06 3 3 3 C3 4.65 3 6.3 3 8 C5.64 8 8.28 8 11 8 C11 8.99 11 9.98 11 11 C8.36 11 5.72 11 3 11 C3 12.65 3 14.3 3 16 C5.97 16 8.94 16 12 16 C12 16.66 12 17.32 12 18 C8.04 18 4.08 18 0 18 C0 12.06 0 6.12 0 0 Z " fill="#E0DDDC" transform="translate(173,168)"/>
<path d="M0 0 C0.99 0 1.98 0 3 0 C3.33 4.95 3.66 9.9 4 15 C5.98 15 7.96 15 10 15 C10.33 10.05 10.66 5.1 11 0 C11.99 0 12.98 0 14 0 C14.13536629 2.41854446 14.23420279 4.82949783 14.3125 7.25 C14.3753418 8.27287109 14.3753418 8.27287109 14.43945312 9.31640625 C14.48828125 11.328125 14.48828125 11.328125 14 15 C11.4978226 17.60160167 9.98035542 18.80871114 6.4375 19.5 C3.08474773 18.81225595 2.06734471 17.72178717 0 15 C-0.2911521 12.26317029 -0.38322418 9.96059961 -0.25 7.25 C-0.23195313 6.55261719 -0.21390625 5.85523438 -0.1953125 5.13671875 C-0.14838554 3.42388461 -0.07664605 1.71176176 0 0 Z " fill="#EBE9E9" transform="translate(332,168)"/>
<path d="M0 0 C1.875 1.5 1.875 1.5 3 3 C-0.06890187 4.53445094 -2.70094266 3.54984289 -6 3 C-5.67 4.32 -5.34 5.64 -5 7 C-3.88625 7.28875 -2.7725 7.5775 -1.625 7.875 C2 9 2 9 4 11 C3.8125 14 3.8125 14 3 17 C-0.69486103 19.46324069 -2.63293092 19.38991688 -7 19 C-8.9375 17.5 -8.9375 17.5 -10 16 C-6.52674819 14.8422494 -3.63932552 14.93133348 0 15 C0 14.01 0 13.02 0 12 C-1.11375 11.71125 -2.2275 11.4225 -3.375 11.125 C-7 10 -7 10 -9 8 C-9.36023622 5.19015752 -9.38332602 3.61758081 -7.875 1.1875 C-5.12844028 -0.55198782 -3.18153026 -0.39769128 0 0 Z " fill="#E7E5E4" transform="translate(409,168)"/>
<path d="M0 0 C0.99 0 1.98 0 3 0 C3.06058594 0.99902344 3.12117188 1.99804688 3.18359375 3.02734375 C3.26738281 4.31769531 3.35117187 5.60804688 3.4375 6.9375 C3.51871094 8.22527344 3.59992188 9.51304687 3.68359375 10.83984375 C3.64919188 13.86023957 3.64919188 13.86023957 5 15 C7.5 15.16666667 7.5 15.16666667 10 15 C11.94090826 13.05909174 11.39919435 9.52706098 11.5625 6.9375 C11.64628906 5.64714844 11.73007812 4.35679687 11.81640625 3.02734375 C11.87699219 2.02832031 11.93757813 1.02929688 12 0 C12.66 0 13.32 0 14 0 C14.10792837 2.60527105 14.18724878 5.20608311 14.25 7.8125 C14.30027344 8.91948242 14.30027344 8.91948242 14.3515625 10.04882812 C14.45011739 15.49398568 14.45011739 15.49398568 12.20703125 18.015625 C8.81947811 19.52653366 6.51678676 18.95912366 3 18 C0.38074642 15.53093297 0.01491856 14.17584008 -0.29296875 10.546875 C-0.25816406 9.29390625 -0.22335937 8.0409375 -0.1875 6.75 C-0.16042969 5.48671875 -0.13335937 4.2234375 -0.10546875 2.921875 C-0.07066406 1.95765625 -0.03585937 0.9934375 0 0 Z " fill="#E0DEDC" transform="translate(382,168)"/>
<path d="M0 0 C2.33294775 -0.04241723 4.66702567 -0.04092937 7 0 C8 1 8 1 8.1328125 3.46875 C8.13023437 4.4690625 8.12765625 5.469375 8.125 6.5 C8.12757813 7.5003125 8.13015625 8.500625 8.1328125 9.53125 C8 12 8 12 7 13 C4.66702567 13.04092937 2.33294775 13.04241723 0 13 C0 8.71 0 4.42 0 0 Z " fill="#140F0E" transform="translate(158,171)"/>
<path d="M0 0 C2.33294775 -0.04241723 4.66702567 -0.04092937 7 0 C8.66561399 1.66561399 8.17115945 3.65962705 8.1875 5.9375 C8.20167969 6.83339844 8.21585937 7.72929687 8.23046875 8.65234375 C8 11 8 11 6 13 C4.02 13 2.04 13 0 13 C0 8.71 0 4.42 0 0 Z " fill="#0E0908" transform="translate(352,171)"/>
<path d="M0 0 C3.96 0 7.92 0 12 0 C12 0.99 12 1.98 12 3 C9.03 3 6.06 3 3 3 C3 4.65 3 6.3 3 8 C5.64 8 8.28 8 11 8 C11 8.99 11 9.98 11 11 C8.03 11 5.06 11 2 11 C2 13.31 2 15.62 2 18 C1.34 18 0.68 18 0 18 C0 12.06 0 6.12 0 0 Z " fill="#DEDBDA" transform="translate(317,168)"/>
<path d="M0 0 C1.4540625 0.0309375 1.4540625 0.0309375 2.9375 0.0625 C4.11423198 2.41596396 4.10373866 3.9431033 4.125 6.5625 C4.13917969 7.3565625 4.15335937 8.150625 4.16796875 8.96875 C3.9375 11.0625 3.9375 11.0625 1.9375 13.0625 C-0.625 13.25 -0.625 13.25 -3.0625 13.0625 C-4.0625 12.0625 -4.0625 12.0625 -4.1953125 9.59375 C-4.19273437 8.5934375 -4.19015625 7.593125 -4.1875 6.5625 C-4.19007813 5.5621875 -4.19265625 4.561875 -4.1953125 3.53125 C-3.99806288 -0.13527239 -3.74275407 0.07638274 0 0 Z " fill="#0E0909" transform="translate(373.0625,170.9375)"/>
<path d="M0 0 C0.99 0 1.98 0 3 0 C3 6.27 3 12.54 3 19 C2.01 19 1.02 19 0 19 C-0.33 15.04 -0.66 11.08 -1 7 C-1.66 7 -2.32 7 -3 7 C-1.125 1.125 -1.125 1.125 0 0 Z " fill="#E4E2E1" transform="translate(261,168)"/>
<path d="M0 0 C0.33 0 0.66 0 1 0 C1 1.65 1 3.3 1 5 C3.64 4.34 6.28 3.68 9 3 C10.4606285 5.64738916 11 6.89448334 11 10 C10.01 10 9.02 10 8 10 C8 9.01 8 8.02 8 7 C5.03 7 2.06 7 -1 7 C-1.33 7.99 -1.66 8.98 -2 10 C-2.66 10 -3.32 10 -4 10 C-3.52371389 5.8086822 -2.89509268 3.13635041 0 0 Z " fill="#F3F2F1" transform="translate(230,176)"/>
<path d="M0 0 C0.99 0 1.98 0 3 0 C3.0809723 2.43816585 3.14046972 4.87364384 3.1875 7.3125 C3.22520508 8.34793945 3.22520508 8.34793945 3.26367188 9.40429688 C3.33765121 14.50887097 3.33765121 14.50887097 1.625 17 C0 18 0 18 -2.1875 17.6875 C-2.785625 17.460625 -3.38375 17.23375 -4 17 C-3.01 16.34 -2.02 15.68 -1 15 C-0.61588725 12.390379 -0.39706803 9.9941926 -0.3125 7.375 C-0.27833984 6.66859375 -0.24417969 5.9621875 -0.20898438 5.234375 C-0.12648692 3.49014312 -0.06156665 1.74509605 0 0 Z " fill="#F4F4F3" transform="translate(343,168)"/>
<path d="M0 0 C3.875 1.875 3.875 1.875 5 3 C5.203125 5.14453125 5.203125 5.14453125 5.25 7.8125 C5.27578125 8.68519531 5.3015625 9.55789062 5.328125 10.45703125 C4.94334919 13.43904377 3.96899223 14.7771114 2 17 C0.68 16.67 -0.64 16.34 -2 16 C-1.51015625 15.59652344 -1.0203125 15.19304687 -0.515625 14.77734375 C1.39154445 12.5408435 1.34768141 11.45875366 1.25 8.5625 C1.23453125 7.80066406 1.2190625 7.03882813 1.203125 6.25390625 C1.00665883 4.07388739 0.59405998 2.10316396 0 0 Z " fill="#F1F0EF" transform="translate(375,169)"/>
<path d="M0 0 C2.31 0 4.62 0 7 0 C7 0.33 7 0.66 7 1 C5.35 1 3.7 1 2 1 C2 5.62 2 10.24 2 15 C3.65 15 5.3 15 7 15 C6.67 15.66 6.34 16.32 6 17 C4.02 17 2.04 17 0 17 C0 11.39 0 5.78 0 0 Z " fill="#FDFDFD" transform="translate(350,169)"/>
<path d="M0 0 C2.31 0 4.62 0 7 0 C7 0.33 7 0.66 7 1 C5.35 1 3.7 1 2 1 C2 5.62 2 10.24 2 15 C3.65 15 5.3 15 7 15 C6.67 15.66 6.34 16.32 6 17 C4.02 17 2.04 17 0 17 C0 11.39 0 5.78 0 0 Z " fill="#FDFDFD" transform="translate(156,169)"/>
<path d="M0 0 C1.0326802 2.78823655 1.04509293 3.8677274 0.0625 6.75 C-0.288125 7.4925 -0.63875 8.235 -1 9 C0.65 9 2.3 9 4 9 C4 9.33 4 9.66 4 10 C2.02 10 0.04 10 -2 10 C-2.33 11.65 -2.66 13.3 -3 15 C-3.99 15 -4.98 15 -6 15 C-5.38602623 10.24170326 -3.4893031 3.4893031 0 0 Z " fill="#ECEBEA" transform="translate(273,172)"/>
<path d="M0 0 C0.66 0 1.32 0 2 0 C2.10792837 2.60527105 2.18724878 5.20608311 2.25 7.8125 C2.30027344 8.91948242 2.30027344 8.91948242 2.3515625 10.04882812 C2.45043249 15.51139526 2.45043249 15.51139526 0.15625 18 C-2.39210586 19.1818462 -4.2219454 19.23150455 -7 19 C-6.38125 18.731875 -5.7625 18.46375 -5.125 18.1875 C-2.7004767 17.04443152 -2.7004767 17.04443152 -1 14 C-0.70547416 11.61322924 -0.5071783 9.21373906 -0.375 6.8125 C-0.30023438 5.54019531 -0.22546875 4.26789063 -0.1484375 2.95703125 C-0.09945313 1.98121094 -0.05046875 1.00539062 0 0 Z " fill="#E9E7E6" transform="translate(394,168)"/>
<path d="M0 0 C3 1 3 1 3.94921875 2.7421875 C4.31466797 3.79792969 4.31466797 3.79792969 4.6875 4.875 C5.06455078 5.92300781 5.06455078 5.92300781 5.44921875 6.9921875 C6 9 6 9 6 12 C5.01 11.67 4.02 11.34 3 11 C2.67 10.34 2.34 9.68 2 9 C-1.02934491 8.34227572 -1.02934491 8.34227572 -4 8 C-4 7.67 -4 7.34 -4 7 C-2.02 7 -0.04 7 2 7 C1.67 6.401875 1.34 5.80375 1 5.1875 C0 3 0 3 0 0 Z " fill="#F6F5F5" transform="translate(425,174)"/>
<path d="M0 0 C7 8.44827586 7 8.44827586 7 12 C5.1875 11.8125 5.1875 11.8125 3 11 C0.85802506 8.09303401 0 6.64478912 0 3 C-0.66 2.67 -1.32 2.34 -2 2 C-1.34 1.34 -0.68 0.68 0 0 Z " fill="#F1F0EF" transform="translate(196,174)"/>
<path d="M0 0 C0.66 0.33 1.32 0.66 2 1 C2.73075648 3.3140622 3.40138258 5.64828869 4 8 C2.02 8 0.04 8 -2 8 C-1.125 2.25 -1.125 2.25 0 0 Z " fill="#352F2D" transform="translate(423,173)"/>
<path d="M0 0 C0.66 0 1.32 0 2 0 C2.66 2.64 3.32 5.28 4 8 C2.02 8 0.04 8 -2 8 C-1.34 5.36 -0.68 2.72 0 0 Z " fill="#362F2D" transform="translate(274,173)"/>
<path d="M0 0 C0.99 0 1.98 0 3 0 C3.66 1.98 4.32 3.96 5 6 C2.69 6.33 0.38 6.66 -2 7 C-1.34 4.69 -0.68 2.38 0 0 Z " fill="#E5E3E1" transform="translate(422,168)"/>
<path d="M0 0 C2.5654594 2.5654594 2.54046087 4.47686668 3 8 C1.35 8 -0.3 8 -2 8 C-1.125 2.25 -1.125 2.25 0 0 Z " fill="#292322" transform="translate(233,173)"/>
<path d="M0 0 C-1.45255699 3.82946843 -3.42895561 5.12050295 -7 7 C-7 4 -7 4 -5.1875 1.8125 C-3 0 -3 0 0 0 Z " fill="#DCD9D7" transform="translate(221,168)"/>
<path d="M0 0 C1.45945288 0.08708669 2.91765868 0.19526907 4.375 0.3125 C5.59316406 0.39951172 5.59316406 0.39951172 6.8359375 0.48828125 C9 1 9 1 11 4 C9.741875 4.04125 8.48375 4.0825 7.1875 4.125 C6.47980469 4.14820312 5.77210937 4.17140625 5.04296875 4.1953125 C3 4 3 4 0 2 C0 1.34 0 0.68 0 0 Z " fill="#241F1D" transform="translate(114,63)"/>
<path d="M0 0 C3.4375 0.25 3.4375 0.25 7 1 C7.66 1.99 8.32 2.98 9 4 C2.47692308 4.36923077 2.47692308 4.36923077 0.0625 2.5 C-0.4634375 1.7575 -0.4634375 1.7575 -1 1 C-0.67 0.67 -0.34 0.34 0 0 Z " fill="#C9C6C3" transform="translate(400,183)"/>
<path d="M0 0 C0 0.99 0 1.98 0 3 C-2.64 3.33 -5.28 3.66 -8 4 C-8 3.34 -8 2.68 -8 2 C-4.77208445 -0.1519437 -3.71599191 -0.20086443 0 0 Z " fill="#DEDBDA" transform="translate(375,168)"/>
</svg>
