<svg version="1.1" id="Layer_1" xmlns="http://www.w3.org/2000/svg" xmlns:xlink="http://www.w3.org/1999/xlink" x="0px" y="0px"
	 width="100%" viewBox="0 0 1290 1260" enable-background="new 0 0 1290 1260" xml:space="preserve">
<path fill="#020202" opacity="1.000000" stroke="none" 
	d="
M721.000000,1261.000000 
	C480.666656,1261.000000 240.833328,1261.000000 1.000000,1261.000000 
	C1.000000,841.000000 1.000000,421.000000 1.000000,1.000000 
	C431.000000,1.000000 861.000000,1.000000 1291.000000,1.000000 
	C1291.000000,421.000000 1291.000000,841.000000 1291.000000,1261.000000 
	C1101.166626,1261.000000 911.333313,1261.000000 721.000000,1261.000000 
M790.933228,732.227966 
	C791.573181,725.283813 792.461121,718.351990 792.805176,711.393188 
	C793.723083,692.825012 794.130737,674.228027 795.293396,655.677063 
	C795.934570,645.446106 797.729553,635.289734 798.925354,625.090454 
	C799.906067,616.725281 800.770081,608.346558 801.888367,599.178650 
	C801.840393,598.089844 801.792419,597.001038 802.035706,595.252136 
	C802.708130,591.832336 803.559692,588.436157 804.015564,584.987732 
	C804.948853,577.928162 805.363098,570.788574 806.547729,563.776062 
	C808.476807,552.356689 810.699402,540.978882 813.203674,529.673401 
	C813.579529,527.976746 815.951111,526.015198 817.764954,525.522888 
	C820.035400,524.906677 822.707092,525.523926 825.164673,525.886353 
	C833.693054,527.144043 842.239929,528.328552 850.710205,529.913025 
	C858.008667,531.278381 865.376892,532.638855 872.424683,534.902771 
	C888.979858,540.220703 904.318787,548.263428 917.846130,559.112427 
	C926.073792,565.711060 933.277710,573.664368 940.449402,581.461670 
	C943.165527,584.414734 945.019836,588.625061 941.892212,592.805115 
	C931.060486,607.281738 917.611145,617.552673 898.689392,617.591064 
	C891.289612,617.606079 883.731995,616.453674 877.952759,610.742249 
	C869.955261,602.838623 861.802979,595.342285 855.737488,585.436584 
	C847.712463,572.330750 837.793274,560.382446 828.629517,547.979980 
	C827.756226,546.798096 826.505249,545.878174 825.363525,544.914978 
	C821.923828,542.013245 817.727051,541.262939 814.433411,544.056458 
	C811.348999,546.672607 812.186096,550.641846 814.257080,554.069153 
	C828.757507,578.066345 845.580261,600.197449 866.036438,619.506592 
	C881.675354,634.268616 899.647400,635.233704 918.749695,628.636475 
	C931.032654,624.394470 940.477112,615.813171 948.616028,606.024841 
	C951.791138,602.206299 954.643250,597.386475 955.606323,592.612000 
	C957.694214,582.260376 953.820496,573.042236 947.467163,564.845337 
	C937.785461,552.354187 924.542725,544.264404 911.480957,536.021973 
	C901.686584,529.841492 891.563416,524.326538 879.915100,522.157898 
	C873.426147,520.949829 867.106445,518.858887 860.646973,517.459167 
	C850.816040,515.328979 840.925476,513.475525 831.068665,511.463196 
	C822.520386,509.718079 814.125671,508.507080 807.043884,501.963959 
	C797.314819,492.974854 784.707520,489.008453 771.824402,487.120178 
	C761.004517,485.534332 749.989136,485.207153 739.046814,484.547729 
	C713.623840,483.015656 688.187073,481.710632 662.768799,480.108704 
	C655.828003,479.671234 648.806030,479.073822 642.043335,477.558746 
	C627.893066,474.388550 613.920227,470.435883 599.818787,467.035645 
	C586.357971,463.789856 572.920471,460.292511 559.293762,457.943848 
	C549.883545,456.321899 540.121277,455.566772 530.603333,456.069824 
	C520.768188,456.589630 510.974152,458.814545 501.318512,460.988220 
	C499.483154,461.401398 497.237030,465.019409 497.165100,467.223541 
	C496.998474,472.329010 494.496490,475.382233 490.456116,477.464966 
	C485.455536,480.042694 480.409943,482.652496 475.134308,484.557587 
	C445.821198,495.142761 416.462616,505.604401 387.056213,515.927734 
	C373.254089,520.773010 360.680878,527.515991 350.486206,538.166992 
	C343.913635,545.033691 337.098236,552.326477 336.093323,562.009338 
	C334.940796,573.114868 333.459229,584.675354 338.037537,595.472961 
	C341.552155,603.762024 348.803009,612.395386 360.619598,612.054871 
	C368.113617,611.838867 375.694183,612.597656 383.093933,611.720886 
	C390.241058,610.874146 397.609741,609.429810 404.176666,606.608398 
	C425.385010,597.496033 443.937469,584.189758 461.070221,568.774658 
	C467.742828,562.771057 474.957245,557.365723 481.993317,551.773987 
	C483.139648,550.862976 484.642609,550.400696 486.765442,549.338257 
	C486.765442,551.675293 486.875458,552.966187 486.746552,554.232788 
	C486.174713,559.851746 485.598999,565.471802 484.902039,571.076172 
	C484.064087,577.814941 483.189240,584.551514 482.170593,591.264771 
	C480.977600,599.127441 479.550720,606.954529 478.344208,614.815247 
	C477.568939,619.866150 477.008118,624.950073 476.131866,630.759949 
	C476.166504,631.527283 476.201141,632.294556 475.960693,633.733459 
	C475.297180,637.146667 474.597015,640.553162 473.977875,643.974426 
	C472.744354,650.790649 471.464020,657.600464 470.374268,664.440186 
	C469.336029,670.956665 468.515900,677.507812 467.316498,684.844604 
	C467.314728,686.257141 467.312958,687.669678 466.945465,689.707397 
	C465.568298,698.510010 464.097412,707.299255 462.841614,716.119141 
	C461.698730,724.146179 460.718781,732.198364 459.803406,740.255005 
	C459.245239,745.167908 458.945068,750.110229 458.268250,755.696716 
	C458.297821,756.162903 458.327393,756.629028 457.995483,757.728577 
	C457.472015,761.829956 456.948547,765.931274 456.197906,770.859619 
	C456.282684,772.561584 456.367462,774.263550 456.281616,776.637512 
	C458.148773,778.265991 459.771973,780.684326 461.935730,781.352661 
	C465.992279,782.605652 470.358643,783.394836 474.601593,783.418823 
	C504.430420,783.587646 534.278625,784.153259 564.084656,783.312683 
	C588.160950,782.633728 612.180420,780.066528 636.236877,778.519714 
	C658.159546,777.110046 680.093262,775.856689 702.031067,774.703613 
	C717.991455,773.864807 733.962891,772.894592 749.935974,772.761169 
	C760.230652,772.675171 770.704346,770.095825 781.085510,774.018616 
	C782.560303,770.022400 784.171143,766.064331 785.485291,762.010132 
	C788.021973,754.184143 791.739563,746.583008 790.723206,737.142822 
	C790.690247,735.729187 790.657288,734.315491 790.933228,732.227966 
z"/>
<path fill="#E4E4E4" opacity="1.000000" stroke="none" 
	d="
M476.351166,630.019165 
	C477.008118,624.950073 477.568939,619.866150 478.344208,614.815247 
	C479.550720,606.954529 480.977600,599.127441 482.170593,591.264771 
	C483.189240,584.551514 484.064087,577.814941 484.902039,571.076172 
	C485.598999,565.471802 486.174713,559.851746 486.746552,554.232788 
	C486.875458,552.966187 486.765442,551.675293 486.765442,549.338257 
	C484.642609,550.400696 483.139648,550.862976 481.993317,551.773987 
	C474.957245,557.365723 467.742828,562.771057 461.070221,568.774658 
	C443.937469,584.189758 425.385010,597.496033 404.176666,606.608398 
	C397.609741,609.429810 390.241058,610.874146 383.093933,611.720886 
	C375.694183,612.597656 368.113617,611.838867 360.619598,612.054871 
	C348.803009,612.395386 341.552155,603.762024 338.037537,595.472961 
	C333.459229,584.675354 334.940796,573.114868 336.093323,562.009338 
	C337.098236,552.326477 343.913635,545.033691 350.486206,538.166992 
	C360.680878,527.515991 373.254089,520.773010 387.056213,515.927734 
	C416.462616,505.604401 445.821198,495.142761 475.134308,484.557587 
	C480.409943,482.652496 485.455536,480.042694 490.456116,477.464966 
	C494.496490,475.382233 496.998474,472.329010 497.165100,467.223541 
	C497.237030,465.019409 499.483154,461.401398 501.318512,460.988220 
	C510.974152,458.814545 520.768188,456.589630 530.603333,456.069824 
	C540.121277,455.566772 549.883545,456.321899 559.293762,457.943848 
	C572.920471,460.292511 586.357971,463.789856 599.818787,467.035645 
	C613.920227,470.435883 627.893066,474.388550 642.043335,477.558746 
	C648.806030,479.073822 655.828003,479.671234 662.768799,480.108704 
	C688.187073,481.710632 713.623840,483.015656 739.046814,484.547729 
	C749.989136,485.207153 761.004517,485.534332 771.824402,487.120178 
	C784.707520,489.008453 797.314819,492.974854 807.043884,501.963959 
	C814.125671,508.507080 822.520386,509.718079 831.068665,511.463196 
	C840.925476,513.475525 850.816040,515.328979 860.646973,517.459167 
	C867.106445,518.858887 873.426147,520.949829 879.915100,522.157898 
	C891.563416,524.326538 901.686584,529.841492 911.480957,536.021973 
	C924.542725,544.264404 937.785461,552.354187 947.467163,564.845337 
	C953.820496,573.042236 957.694214,582.260376 955.606323,592.612000 
	C954.643250,597.386475 951.791138,602.206299 948.616028,606.024841 
	C940.477112,615.813171 931.032654,624.394470 918.749695,628.636475 
	C899.647400,635.233704 881.675354,634.268616 866.036438,619.506592 
	C845.580261,600.197449 828.757507,578.066345 814.257080,554.069153 
	C812.186096,550.641846 811.348999,546.672607 814.433411,544.056458 
	C817.727051,541.262939 821.923828,542.013245 825.363525,544.914978 
	C826.505249,545.878174 827.756226,546.798096 828.629517,547.979980 
	C837.793274,560.382446 847.712463,572.330750 855.737488,585.436584 
	C861.802979,595.342285 869.955261,602.838623 877.952759,610.742249 
	C883.731995,616.453674 891.289612,617.606079 898.689392,617.591064 
	C917.611145,617.552673 931.060486,607.281738 941.892212,592.805115 
	C945.019836,588.625061 943.165527,584.414734 940.449402,581.461670 
	C933.277710,573.664368 926.073792,565.711060 917.846130,559.112427 
	C904.318787,548.263428 888.979858,540.220703 872.424683,534.902771 
	C865.376892,532.638855 858.008667,531.278381 850.710205,529.913025 
	C842.239929,528.328552 833.693054,527.144043 825.164673,525.886353 
	C822.707092,525.523926 820.035400,524.906677 817.764954,525.522888 
	C815.951111,526.015198 813.579529,527.976746 813.203674,529.673401 
	C810.699402,540.978882 808.476807,552.356689 806.547729,563.776062 
	C805.363098,570.788574 804.948853,577.928162 804.015564,584.987732 
	C803.559692,588.436157 802.708130,591.832336 801.654297,595.312378 
	C800.380005,590.084167 799.487000,584.795715 798.395874,578.334167 
	C797.417908,580.090637 796.634644,581.340027 796.010010,582.664246 
	C795.409485,583.937500 795.333496,585.991821 794.396423,586.471985 
	C791.688599,587.859192 791.481506,589.150330 793.253845,591.476318 
	C793.771973,592.156250 793.219666,593.614441 793.243896,594.714050 
	C793.431580,603.233887 788.651611,610.863831 789.546814,619.764221 
	C790.190491,626.163818 788.002991,632.850891 787.057617,639.406677 
	C786.386902,644.057556 785.379395,648.683350 785.068970,653.356628 
	C784.692688,659.021606 784.556824,664.579407 783.423462,670.280640 
	C781.857117,678.160645 782.519287,686.465088 781.880432,694.560364 
	C781.706665,696.762512 780.287292,698.866394 779.320801,700.563599 
	C779.914490,692.663635 780.764771,685.225586 781.309631,677.765137 
	C782.314941,663.999939 783.029846,650.213135 784.083008,636.452026 
	C784.729065,628.009949 785.496521,619.557678 786.716492,611.183777 
	C788.386963,599.718079 790.833069,588.362976 792.409546,576.886658 
	C794.349976,562.760864 795.554199,548.534058 797.477600,534.405579 
	C798.040955,530.267029 797.395935,527.447144 793.850464,525.082947 
	C790.415100,522.792175 789.033142,519.700012 791.588074,515.704956 
	C793.693237,512.413269 791.958923,509.864075 789.344055,508.035919 
	C787.482483,506.734467 785.254761,505.687592 783.042480,505.204620 
	C774.672241,503.377380 766.299927,501.376617 757.820007,500.276794 
	C744.813110,498.589844 731.731750,497.404388 718.653931,496.356598 
	C704.734985,495.241364 690.773743,494.658997 676.849792,493.597870 
	C669.572754,493.043274 662.297119,492.204468 655.090027,491.059021 
	C643.997925,489.296234 632.901184,487.456665 621.926086,485.093842 
	C611.775635,482.908600 601.724243,480.195770 591.738525,477.334045 
	C583.956848,475.103973 576.478577,471.712616 568.623840,469.863586 
	C555.824707,466.850586 542.755676,467.391510 529.931580,469.819794 
	C522.426941,471.240814 514.979919,473.708191 513.013306,482.876923 
	C511.387726,490.455505 509.513031,497.980743 507.898651,505.561554 
	C507.551483,507.191803 507.847992,508.959167 507.847992,511.986084 
	C511.551056,509.289948 514.031006,507.438263 516.558960,505.654663 
	C520.350952,502.979156 523.915039,499.768524 528.076477,497.900238 
	C531.048340,496.566010 536.396423,495.510559 537.944336,497.062805 
	C541.163025,500.290680 538.116211,504.281128 535.288208,506.883698 
	C527.227539,514.302063 518.818665,521.341797 510.751953,528.753845 
	C507.383759,531.848694 503.339508,535.023804 501.719879,539.020447 
	C499.082977,545.527161 497.782562,552.673828 496.656830,559.669250 
	C495.315155,568.006714 494.814789,576.476868 493.831848,584.875732 
	C493.099762,591.130676 492.278046,597.378845 491.318115,603.602600 
	C490.183167,610.961487 488.911469,618.300659 487.598846,625.630432 
	C486.084106,634.088623 484.459961,642.527344 482.628235,650.701599 
	C480.934113,646.190796 482.284546,642.577148 483.545227,638.360168 
	C485.362396,632.281372 484.562836,625.439758 485.060028,618.937439 
	C485.258667,616.338928 485.842499,613.756042 486.414124,611.202515 
	C488.045990,603.912476 492.307312,596.799316 487.950409,589.145630 
	C487.458588,588.281616 486.139709,587.888428 485.204346,587.276978 
	C485.033661,588.409058 484.313751,589.914673 484.786224,590.609375 
	C486.968445,593.818359 485.776764,596.016968 483.453735,598.480286 
	C482.660614,599.321350 482.482422,602.274658 482.977539,602.550598 
	C486.286896,604.394897 484.786102,606.778015 484.083191,609.065735 
	C483.207886,611.914612 482.282166,614.753174 481.238037,617.543762 
	C479.673126,621.726196 477.986237,625.862976 476.351166,630.019165 
M422.906403,584.568237 
	C439.873810,571.477905 457.117920,558.724304 473.665497,545.123108 
	C479.845215,540.043762 484.995361,533.395264 489.556763,526.737305 
	C496.494171,516.611328 496.416016,504.463623 497.184875,492.766449 
	C497.511383,487.798431 493.615295,489.255310 491.168793,490.179474 
	C473.411102,496.887573 455.815552,504.035339 437.973145,510.504700 
	C427.279999,514.381836 416.340698,517.704041 405.318207,520.515869 
	C393.207581,523.605347 381.480835,527.306763 370.987518,534.317566 
	C354.648804,545.233826 343.024445,558.730042 344.915375,580.076172 
	C345.596680,587.767456 353.541809,599.495850 360.555878,600.232971 
	C369.088837,601.129700 377.970642,601.396851 386.392975,600.031982 
	C399.381165,597.927307 411.080597,591.813965 422.906403,584.568237 
z"/>
<path fill="#F4F4F4" opacity="1.000000" stroke="none" 
	d="
M476.241516,630.389526 
	C477.986237,625.862976 479.673126,621.726196 481.238037,617.543762 
	C482.282166,614.753174 483.207886,611.914612 484.083191,609.065735 
	C484.786102,606.778015 486.286896,604.394897 482.977539,602.550598 
	C482.482422,602.274658 482.660614,599.321350 483.453735,598.480286 
	C485.776764,596.016968 486.968445,593.818359 484.786224,590.609375 
	C484.313751,589.914673 485.033661,588.409058 485.204346,587.276978 
	C486.139709,587.888428 487.458588,588.281616 487.950409,589.145630 
	C492.307312,596.799316 488.045990,603.912476 486.414124,611.202515 
	C485.842499,613.756042 485.258667,616.338928 485.060028,618.937439 
	C484.562836,625.439758 485.362396,632.281372 483.545227,638.360168 
	C482.284546,642.577148 480.934113,646.190796 482.705750,651.099426 
	C482.951996,652.841003 482.865631,653.911865 482.436127,655.068726 
	C481.677551,658.090393 481.262054,661.026001 480.912231,664.361572 
	C480.876831,665.832825 480.775848,666.904114 480.337402,668.074280 
	C479.579041,671.426758 479.158173,674.680298 478.790588,678.278809 
	C478.730377,679.070618 478.616913,679.517395 478.167725,680.108032 
	C477.635040,680.513123 477.296265,680.756775 477.261414,681.038086 
	C475.492706,695.309021 473.682495,709.575562 472.054688,723.862793 
	C471.674988,727.195374 471.924316,730.599609 471.963013,734.421021 
	C471.946503,737.907837 471.851257,740.944458 471.389221,744.101135 
	C470.368195,750.862549 469.596558,757.496826 469.196686,764.153442 
	C469.141907,765.064758 470.938568,766.087341 471.918030,767.055176 
	C471.958008,767.051941 471.938538,767.129822 472.024689,767.495850 
	C474.586548,768.572205 477.044769,769.823914 479.540833,769.904480 
	C495.310791,770.413391 511.088226,770.718201 526.865112,770.972778 
	C534.019226,771.088257 541.202209,771.301392 548.329224,770.826782 
	C564.338013,769.760559 580.323120,768.329651 596.309814,766.954041 
	C599.238525,766.702087 602.129395,766.010071 605.365845,765.373047 
	C606.164429,765.269348 606.634888,765.313904 607.433960,765.590088 
	C615.278198,765.521851 622.795654,765.254822 630.306396,764.859863 
	C630.904724,764.828430 631.456543,763.911682 632.477905,763.272888 
	C637.977905,763.187622 643.029968,763.235840 648.404724,763.533813 
	C656.208679,763.831543 663.714355,764.288940 671.166443,763.845886 
	C688.845459,762.794983 706.499573,761.324585 724.162720,760.009277 
	C737.531433,759.013855 750.917236,758.192932 764.260010,756.922485 
	C773.963135,755.998596 779.998657,745.846863 777.045349,735.632629 
	C777.050476,734.161926 777.132446,733.089294 777.561279,731.921265 
	C781.613342,725.786804 780.380981,719.414551 779.108643,712.584717 
	C779.174072,708.421997 779.306763,704.718689 779.439514,701.015320 
	C780.287292,698.866394 781.706665,696.762512 781.880432,694.560364 
	C782.519287,686.465088 781.857117,678.160645 783.423462,670.280640 
	C784.556824,664.579407 784.692688,659.021606 785.068970,653.356628 
	C785.379395,648.683350 786.386902,644.057556 787.057617,639.406677 
	C788.002991,632.850891 790.190491,626.163818 789.546814,619.764221 
	C788.651611,610.863831 793.431580,603.233887 793.243896,594.714050 
	C793.219666,593.614441 793.771973,592.156250 793.253845,591.476318 
	C791.481506,589.150330 791.688599,587.859192 794.396423,586.471985 
	C795.333496,585.991821 795.409485,583.937500 796.010010,582.664246 
	C796.634644,581.340027 797.417908,580.090637 798.395874,578.334167 
	C799.487000,584.795715 800.380005,590.084167 801.508728,595.642456 
	C801.792419,597.001038 801.840393,598.089844 801.409058,599.576538 
	C795.643005,600.860779 797.228577,604.841003 797.253113,608.125916 
	C797.268311,610.166260 797.255920,612.206848 797.255920,614.247314 
	C797.068909,616.266418 798.339050,618.555115 797.779114,620.232971 
	C795.948975,625.716614 797.514038,632.093628 792.888733,636.984009 
	C791.773315,638.163452 793.095032,641.729126 793.456177,644.173767 
	C793.563293,644.898743 794.602600,645.565979 794.563354,646.220520 
	C793.948914,656.463074 793.175964,666.696106 792.552490,676.938171 
	C792.240173,682.068420 792.337219,687.227600 791.915649,692.346191 
	C791.502747,697.359985 790.494568,702.324524 790.074341,707.338013 
	C789.776123,710.896301 789.946960,714.502136 790.040649,718.083191 
	C790.169983,723.024475 790.423828,727.962463 790.624268,732.901855 
	C790.657288,734.315491 790.690247,735.729187 790.274414,737.697388 
	C786.922180,749.457764 784.018738,760.663574 781.540710,770.227600 
	C774.804565,770.523071 769.805298,770.718994 764.808594,770.966187 
	C751.565857,771.621277 738.329346,772.433777 725.081116,772.939453 
	C696.232239,774.040588 667.374939,774.920715 638.526917,776.041565 
	C629.312561,776.399475 620.105957,777.103760 610.914734,777.874756 
	C595.750854,779.146729 580.621094,781.466370 565.443359,781.795105 
	C536.156067,782.429443 506.841431,782.243408 477.547150,781.800049 
	C470.309753,781.690491 462.318237,782.053101 456.452209,775.965515 
	C456.367462,774.263550 456.282684,772.561584 456.645996,770.326782 
	C457.515045,765.561035 457.936005,761.328125 458.356995,757.095215 
	C458.327393,756.629028 458.297821,756.162903 458.706421,755.256653 
	C459.499481,752.165466 459.851288,749.513916 460.209778,746.863281 
	C462.470490,730.146484 464.761841,713.433716 466.963043,696.709045 
	C467.293884,694.195068 467.205597,691.625854 467.311188,689.082214 
	C467.312958,687.669678 467.314728,686.257141 467.765503,684.324646 
	C469.108734,682.046997 470.511200,680.367981 470.797943,678.516174 
	C471.535828,673.750854 471.538818,668.871643 472.277069,664.106384 
	C473.385803,656.950073 475.040649,649.877625 476.119141,642.717712 
	C476.594055,639.564758 476.222839,636.284424 476.235779,633.061890 
	C476.201141,632.294556 476.166504,631.527283 476.241516,630.389526 
z"/>
<path fill="#E4E4E4" opacity="1.000000" stroke="none" 
	d="
M456.366943,776.301514 
	C462.318237,782.053101 470.309753,781.690491 477.547150,781.800049 
	C506.841431,782.243408 536.156067,782.429443 565.443359,781.795105 
	C580.621094,781.466370 595.750854,779.146729 610.914734,777.874756 
	C620.105957,777.103760 629.312561,776.399475 638.526917,776.041565 
	C667.374939,774.920715 696.232239,774.040588 725.081116,772.939453 
	C738.329346,772.433777 751.565857,771.621277 764.808594,770.966187 
	C769.805298,770.718994 774.804565,770.523071 781.540710,770.227600 
	C784.018738,760.663574 786.922180,749.457764 790.159912,738.107300 
	C791.739563,746.583008 788.021973,754.184143 785.485291,762.010132 
	C784.171143,766.064331 782.560303,770.022400 781.085510,774.018616 
	C770.704346,770.095825 760.230652,772.675171 749.935974,772.761169 
	C733.962891,772.894592 717.991455,773.864807 702.031067,774.703613 
	C680.093262,775.856689 658.159546,777.110046 636.236877,778.519714 
	C612.180420,780.066528 588.160950,782.633728 564.084656,783.312683 
	C534.278625,784.153259 504.430420,783.587646 474.601593,783.418823 
	C470.358643,783.394836 465.992279,782.605652 461.935730,781.352661 
	C459.771973,780.684326 458.148773,778.265991 456.366943,776.301514 
z"/>
<path fill="#E4E4E4" opacity="1.000000" stroke="none" 
	d="
M790.778809,732.564941 
	C790.423828,727.962463 790.169983,723.024475 790.040649,718.083191 
	C789.946960,714.502136 789.776123,710.896301 790.074341,707.338013 
	C790.494568,702.324524 791.502747,697.359985 791.915649,692.346191 
	C792.337219,687.227600 792.240173,682.068420 792.552490,676.938171 
	C793.175964,666.696106 793.948914,656.463074 794.563354,646.220520 
	C794.602600,645.565979 793.563293,644.898743 793.456177,644.173767 
	C793.095032,641.729126 791.773315,638.163452 792.888733,636.984009 
	C797.514038,632.093628 795.948975,625.716614 797.779114,620.232971 
	C798.339050,618.555115 797.068909,616.266418 797.255920,614.247314 
	C797.255920,612.206848 797.268311,610.166260 797.253113,608.125916 
	C797.228577,604.841003 795.643005,600.860779 801.307739,599.974121 
	C800.770081,608.346558 799.906067,616.725281 798.925354,625.090454 
	C797.729553,635.289734 795.934570,645.446106 795.293396,655.677063 
	C794.130737,674.228027 793.723083,692.825012 792.805176,711.393188 
	C792.461121,718.351990 791.573181,725.283813 790.778809,732.564941 
z"/>
<path fill="#E4E4E4" opacity="1.000000" stroke="none" 
	d="
M467.128326,689.394775 
	C467.205597,691.625854 467.293884,694.195068 466.963043,696.709045 
	C464.761841,713.433716 462.470490,730.146484 460.209778,746.863281 
	C459.851288,749.513916 459.499481,752.165466 458.836823,754.927979 
	C458.945068,750.110229 459.245239,745.167908 459.803406,740.255005 
	C460.718781,732.198364 461.698730,724.146179 462.841614,716.119141 
	C464.097412,707.299255 465.568298,698.510010 467.128326,689.394775 
z"/>
<path fill="#E4E4E4" opacity="1.000000" stroke="none" 
	d="
M476.098236,633.397705 
	C476.222839,636.284424 476.594055,639.564758 476.119141,642.717712 
	C475.040649,649.877625 473.385803,656.950073 472.277069,664.106384 
	C471.538818,668.871643 471.535828,673.750854 470.797943,678.516174 
	C470.511200,680.367981 469.108734,682.046997 467.907166,683.924194 
	C468.515900,677.507812 469.336029,670.956665 470.374268,664.440186 
	C471.464020,657.600464 472.744354,650.790649 473.977875,643.974426 
	C474.597015,640.553162 475.297180,637.146667 476.098236,633.397705 
z"/>
<path fill="#E4E4E4" opacity="1.000000" stroke="none" 
	d="
M458.176208,757.411865 
	C457.936005,761.328125 457.515045,765.561035 456.759583,769.913330 
	C456.948547,765.931274 457.472015,761.829956 458.176208,757.411865 
z"/>
<path fill="#030303" opacity="1.000000" stroke="none" 
	d="
M478.503448,679.964233 
	C478.616913,679.517395 478.730377,679.070618 479.007904,677.982971 
	C479.672913,674.219910 480.173889,671.097656 480.674866,667.975403 
	C480.775848,666.904114 480.876831,665.832825 481.097229,664.043701 
	C481.737457,660.544861 482.258301,657.763794 482.779205,654.982727 
	C482.865631,653.911865 482.951996,652.841003 482.960846,651.372314 
	C484.459961,642.527344 486.084106,634.088623 487.598846,625.630432 
	C488.911469,618.300659 490.183167,610.961487 491.318115,603.602600 
	C492.278046,597.378845 493.099762,591.130676 493.831848,584.875732 
	C494.814789,576.476868 495.315155,568.006714 496.656830,559.669250 
	C497.782562,552.673828 499.082977,545.527161 501.719879,539.020447 
	C503.339508,535.023804 507.383759,531.848694 510.751953,528.753845 
	C518.818665,521.341797 527.227539,514.302063 535.288208,506.883698 
	C538.116211,504.281128 541.163025,500.290680 537.944336,497.062805 
	C536.396423,495.510559 531.048340,496.566010 528.076477,497.900238 
	C523.915039,499.768524 520.350952,502.979156 516.558960,505.654663 
	C514.031006,507.438263 511.551056,509.289948 507.847992,511.986084 
	C507.847992,508.959167 507.551483,507.191803 507.898651,505.561554 
	C509.513031,497.980743 511.387726,490.455505 513.013306,482.876923 
	C514.979919,473.708191 522.426941,471.240814 529.931580,469.819794 
	C542.755676,467.391510 555.824707,466.850586 568.623840,469.863586 
	C576.478577,471.712616 583.956848,475.103973 591.738525,477.334045 
	C601.724243,480.195770 611.775635,482.908600 621.926086,485.093842 
	C632.901184,487.456665 643.997925,489.296234 655.090027,491.059021 
	C662.297119,492.204468 669.572754,493.043274 676.849792,493.597870 
	C690.773743,494.658997 704.734985,495.241364 718.653931,496.356598 
	C731.731750,497.404388 744.813110,498.589844 757.820007,500.276794 
	C766.299927,501.376617 774.672241,503.377380 783.042480,505.204620 
	C785.254761,505.687592 787.482483,506.734467 789.344055,508.035919 
	C791.958923,509.864075 793.693237,512.413269 791.588074,515.704956 
	C789.033142,519.700012 790.415100,522.792175 793.850464,525.082947 
	C797.395935,527.447144 798.040955,530.267029 797.477600,534.405579 
	C795.554199,548.534058 794.349976,562.760864 792.409546,576.886658 
	C790.833069,588.362976 788.386963,599.718079 786.716492,611.183777 
	C785.496521,619.557678 784.729065,628.009949 784.083008,636.452026 
	C783.029846,650.213135 782.314941,663.999939 781.309631,677.765137 
	C780.764771,685.225586 779.914490,692.663635 779.320740,700.563599 
	C779.306763,704.718689 779.174072,708.421997 778.934814,712.918091 
	C778.290344,719.812805 777.752380,725.914795 777.214417,732.016724 
	C777.132446,733.089294 777.050476,734.161926 776.876709,735.958740 
	C776.113220,739.921204 776.034912,743.455872 774.606018,746.315857 
	C773.120056,749.290222 770.655762,753.442871 768.053101,753.907227 
	C756.010925,756.055786 743.806030,757.620911 731.595581,758.422424 
	C711.382385,759.749268 691.115356,760.235657 670.881104,761.272034 
	C663.267029,761.661926 655.680969,762.597290 648.082092,763.284058 
	C643.029968,763.235840 637.977905,763.187622 632.030090,763.119507 
	C623.124756,763.852539 615.115051,764.605469 607.105408,765.358459 
	C606.634888,765.313904 606.164429,765.269348 604.916626,765.222229 
	C589.092957,766.081238 574.046875,766.949219 558.999817,767.800537 
	C554.523132,768.053833 550.042236,768.232605 545.565918,768.492981 
	C520.988098,769.922302 496.439850,769.808105 471.938538,767.129822 
	C471.938538,767.129822 471.958008,767.051941 471.853699,766.583313 
	C471.751617,758.736816 471.753784,751.358948 471.755981,743.981079 
	C471.851257,740.944458 471.946503,737.907837 472.118408,734.083374 
	C473.539307,723.356018 474.996399,713.430054 476.191772,703.472656 
	C477.130127,695.656677 477.744904,687.801819 478.503448,679.964233 
M627.776550,590.378540 
	C626.240845,588.909302 624.907227,587.098755 623.126160,586.043823 
	C619.698181,584.013489 615.981812,584.108459 613.288391,587.215210 
	C610.752686,590.140137 610.959106,593.460388 613.906067,596.772827 
	C613.906067,596.772827 614.303650,596.995483 614.390198,597.633240 
	C620.433716,604.452393 627.433228,607.080322 636.638855,604.242065 
	C644.674011,601.764648 652.978333,599.757751 661.606628,601.668152 
	C663.351685,602.054565 665.399353,602.198608 667.043335,601.655273 
	C669.550049,600.826660 671.826538,599.301392 674.711914,597.722595 
	C674.627869,597.151306 674.543762,596.580017 674.562561,595.468445 
	C674.020447,595.055359 673.478271,594.642273 672.705017,593.679260 
	C672.185181,593.435364 671.665405,593.191406 670.856628,592.339966 
	C663.807129,589.543396 656.757690,586.746765 649.767395,583.973633 
	C652.824646,577.765564 652.306824,574.521606 647.247314,572.120789 
	C642.682861,569.954956 635.718262,571.604492 634.619751,575.413208 
	C634.052368,577.380371 634.024536,579.830811 634.668457,581.756775 
	C636.436707,587.045959 641.925110,584.801331 646.840210,586.532104 
	C640.242249,590.407043 634.806091,593.468628 628.002075,591.006958 
	C628.002075,591.006958 627.941406,591.027283 627.776550,590.378540 
M606.704651,570.722351 
	C609.661987,571.913696 612.593201,574.027588 615.581787,574.111938 
	C622.658875,574.311829 632.429749,563.577759 631.867981,556.600098 
	C631.732910,554.922668 630.349854,552.632751 628.896240,551.895996 
	C622.004150,548.402954 615.259338,549.062744 608.822449,553.489136 
	C602.999512,557.493347 600.243347,564.017517 606.704651,570.722351 
M673.140442,558.276245 
	C670.658447,560.412842 666.991821,562.146790 666.083801,564.818359 
	C665.404907,566.816101 667.821716,570.433777 669.718689,572.566467 
	C671.349609,574.399902 674.070251,575.591492 676.529785,576.293518 
	C681.947083,577.839844 687.590393,574.373474 688.300781,569.484131 
	C689.327759,562.415405 686.374756,558.604492 679.441528,558.167358 
	C677.632812,558.053345 675.808655,558.183289 673.140442,558.276245 
z"/>
<path fill="#050505" opacity="1.000000" stroke="none" 
	d="
M422.578918,584.732544 
	C411.080597,591.813965 399.381165,597.927307 386.392975,600.031982 
	C377.970642,601.396851 369.088837,601.129700 360.555878,600.232971 
	C353.541809,599.495850 345.596680,587.767456 344.915375,580.076172 
	C343.024445,558.730042 354.648804,545.233826 370.987518,534.317566 
	C381.480835,527.306763 393.207581,523.605347 405.318207,520.515869 
	C416.340698,517.704041 427.279999,514.381836 437.973145,510.504700 
	C455.815552,504.035339 473.411102,496.887573 491.168793,490.179474 
	C493.615295,489.255310 497.511383,487.798431 497.184875,492.766449 
	C496.416016,504.463623 496.494171,516.611328 489.556763,526.737305 
	C484.995361,533.395264 479.845215,540.043762 473.665497,545.123108 
	C457.117920,558.724304 439.873810,571.477905 422.578918,584.732544 
z"/>
<path fill="#E4E4E4" opacity="1.000000" stroke="none" 
	d="
M648.404724,763.533752 
	C655.680969,762.597290 663.267029,761.661926 670.881104,761.272034 
	C691.115356,760.235657 711.382385,759.749268 731.595581,758.422424 
	C743.806030,757.620911 756.010925,756.055786 768.053101,753.907227 
	C770.655762,753.442871 773.120056,749.290222 774.606018,746.315857 
	C776.034912,743.455872 776.113220,739.921204 776.953552,736.356812 
	C779.998657,745.846863 773.963135,755.998596 764.260010,756.922485 
	C750.917236,758.192932 737.531433,759.013855 724.162720,760.009277 
	C706.499573,761.324585 688.845459,762.794983 671.166443,763.845886 
	C663.714355,764.288940 656.208679,763.831543 648.404724,763.533752 
z"/>
<path fill="#E4E4E4" opacity="1.000000" stroke="none" 
	d="
M472.024689,767.495850 
	C496.439850,769.808105 520.988098,769.922302 545.565918,768.492981 
	C550.042236,768.232605 554.523132,768.053833 558.999817,767.800537 
	C574.046875,766.949219 589.092957,766.081238 604.588562,765.370483 
	C602.129395,766.010071 599.238525,766.702087 596.309814,766.954041 
	C580.323120,768.329651 564.338013,769.760559 548.329224,770.826782 
	C541.202209,771.301392 534.019226,771.088257 526.865112,770.972778 
	C511.088226,770.718201 495.310791,770.413391 479.540833,769.904480 
	C477.044769,769.823914 474.586548,768.572205 472.024689,767.495850 
z"/>
<path fill="#E4E4E4" opacity="1.000000" stroke="none" 
	d="
M478.167725,680.108032 
	C477.744904,687.801819 477.130127,695.656677 476.191772,703.472656 
	C474.996399,713.430054 473.539307,723.356018 472.039642,733.633179 
	C471.924316,730.599609 471.674988,727.195374 472.054688,723.862793 
	C473.682495,709.575562 475.492706,695.309021 477.261414,681.038086 
	C477.296265,680.756775 477.635040,680.513123 478.167725,680.108032 
z"/>
<path fill="#E4E4E4" opacity="1.000000" stroke="none" 
	d="
M471.389221,744.101135 
	C471.753784,751.358948 471.751617,758.736816 471.813721,766.586548 
	C470.938568,766.087341 469.141907,765.064758 469.196686,764.153442 
	C469.596558,757.496826 470.368195,750.862549 471.389221,744.101135 
z"/>
<path fill="#E4E4E4" opacity="1.000000" stroke="none" 
	d="
M607.433960,765.590088 
	C615.115051,764.605469 623.124756,763.852539 631.582153,763.252991 
	C631.456543,763.911682 630.904724,764.828430 630.306396,764.859863 
	C622.795654,765.254822 615.278198,765.521851 607.433960,765.590088 
z"/>
<path fill="#E4E4E4" opacity="1.000000" stroke="none" 
	d="
M777.561279,731.921265 
	C777.752380,725.914795 778.290344,719.812805 779.002197,713.377502 
	C780.380981,719.414551 781.613342,725.786804 777.561279,731.921265 
z"/>
<path fill="#E4E4E4" opacity="1.000000" stroke="none" 
	d="
M480.337402,668.074280 
	C480.173889,671.097656 479.672913,674.219910 478.954651,677.638062 
	C479.158173,674.680298 479.579041,671.426758 480.337402,668.074280 
z"/>
<path fill="#E4E4E4" opacity="1.000000" stroke="none" 
	d="
M482.436096,655.068726 
	C482.258301,657.763794 481.737457,660.544861 481.031616,663.643799 
	C481.262054,661.026001 481.677551,658.090393 482.436096,655.068726 
z"/>
<path fill="#E5E5E5" opacity="1.000000" stroke="none" 
	d="
M614.303650,596.995483 
	C614.303650,596.995483 613.906067,596.772827 613.891113,596.139832 
	C612.669739,592.151001 612.303406,588.873596 615.931641,586.790833 
	C619.429321,584.783081 622.173096,586.339050 624.643677,589.053528 
	C625.469299,589.960510 626.826965,590.383179 627.941406,591.027283 
	C627.941406,591.027283 628.002075,591.006958 628.095581,591.413818 
	C632.237976,591.655945 636.576721,592.364563 640.273254,591.138000 
	C647.176514,588.847412 653.617859,585.224243 661.136536,589.003113 
	C664.327576,590.606995 667.800659,591.649719 671.145569,592.947510 
	C671.665405,593.191406 672.185181,593.435364 672.867676,594.207886 
	C673.506714,595.160583 673.983215,595.584656 674.459656,596.008728 
	C674.543762,596.580017 674.627869,597.151306 674.055786,597.916748 
	C669.875000,598.740540 666.372131,599.568542 662.821167,599.958313 
	C655.670593,600.743042 648.494446,601.295715 641.327698,601.931763 
	C635.076477,602.486694 628.864441,606.108643 622.554443,602.242188 
	C619.775757,600.539612 617.052246,598.747131 614.303650,596.995483 
z"/>
<path fill="#E5E5E5" opacity="1.000000" stroke="none" 
	d="
M606.444519,570.462280 
	C600.243347,564.017517 602.999512,557.493347 608.822449,553.489136 
	C615.259338,549.062744 622.004150,548.402954 628.896240,551.895996 
	C630.349854,552.632751 631.732910,554.922668 631.867981,556.600098 
	C632.429749,563.577759 622.658875,574.311829 615.581787,574.111938 
	C612.593201,574.027588 609.661987,571.913696 606.444519,570.462280 
z"/>
<path fill="#E5E5E5" opacity="1.000000" stroke="none" 
	d="
M673.566040,558.238770 
	C675.808655,558.183289 677.632812,558.053345 679.441528,558.167358 
	C686.374756,558.604492 689.327759,562.415405 688.300781,569.484131 
	C687.590393,574.373474 681.947083,577.839844 676.529785,576.293518 
	C674.070251,575.591492 671.349609,574.399902 669.718689,572.566467 
	C667.821716,570.433777 665.404907,566.816101 666.083801,564.818359 
	C666.991821,562.146790 670.658447,560.412842 673.566040,558.238770 
z"/>
<path fill="#E4E4E4" opacity="1.000000" stroke="none" 
	d="
M671.001099,592.643738 
	C667.800659,591.649719 664.327576,590.606995 661.136536,589.003113 
	C653.617859,585.224243 647.176514,588.847412 640.273254,591.138000 
	C636.576721,592.364563 632.237976,591.655945 628.080078,591.441772 
	C634.806091,593.468628 640.242249,590.407043 646.840210,586.532104 
	C641.925110,584.801331 636.436707,587.045959 634.668457,581.756775 
	C634.024536,579.830811 634.052368,577.380371 634.619751,575.413208 
	C635.718262,571.604492 642.682861,569.954956 647.247314,572.120789 
	C652.306824,574.521606 652.824646,577.765564 649.767395,583.973633 
	C656.757690,586.746765 663.807129,589.543396 671.001099,592.643738 
z"/>
<path fill="#E4E4E4" opacity="1.000000" stroke="none" 
	d="
M614.346924,597.314331 
	C617.052246,598.747131 619.775757,600.539612 622.554443,602.242188 
	C628.864441,606.108643 635.076477,602.486694 641.327698,601.931763 
	C648.494446,601.295715 655.670593,600.743042 662.821167,599.958313 
	C666.372131,599.568542 669.875000,598.740540 673.800171,598.091431 
	C671.826538,599.301392 669.550049,600.826660 667.043335,601.655273 
	C665.399353,602.198608 663.351685,602.054565 661.606628,601.668152 
	C652.978333,599.757751 644.674011,601.764648 636.638855,604.242065 
	C627.433228,607.080322 620.433716,604.452393 614.346924,597.314331 
z"/>
<path fill="#E4E4E4" opacity="1.000000" stroke="none" 
	d="
M627.859009,590.702881 
	C626.826965,590.383179 625.469299,589.960510 624.643677,589.053528 
	C622.173096,586.339050 619.429321,584.783081 615.931641,586.790833 
	C612.303406,588.873596 612.669739,592.151001 613.881714,595.912109 
	C610.959106,593.460388 610.752686,590.140137 613.288391,587.215210 
	C615.981812,584.108459 619.698181,584.013489 623.126160,586.043823 
	C624.907227,587.098755 626.240845,588.909302 627.859009,590.702881 
z"/>
<path fill="#E4E4E4" opacity="1.000000" stroke="none" 
	d="
M674.511108,595.738586 
	C673.983215,595.584656 673.506714,595.160583 672.983154,594.482910 
	C673.478271,594.642273 674.020447,595.055359 674.511108,595.738586 
z"/>
</svg>